HIERARCHY
ROOT Hips
{
	OFFSET 0.000000 0.000000 0.000000 
	CHANNELS 6 Xposition Yposition Zposition Yrotation Xrotation Zrotation
	JOINT Spine
	{
		OFFSET 0.000000 0.072080 0.012321 
		CHANNELS 3 Xrotation Yrotation Zrotation
		JOINT Spine1
		{
			OFFSET 0.000000 0.126984 -0.001294 
			CHANNELS 3 Xrotation Yrotation Zrotation
			JOINT Spine2
			{
				OFFSET 0.000000 0.106559 -0.010096 
				CHANNELS 3 Xrotation Yrotation Zrotation
				JOINT Neck
				{
					OFFSET 0.000000 0.108417 -0.034017 
					CHANNELS 3 Xrotation Yrotation Zrotation
					JOINT Neck1
					{
						OFFSET 0.000000 0.033906 0.007241 
						CHANNELS 3 Xrotation Yrotation Zrotation
						JOINT Head
						{
							OFFSET 0.000000 0.031458 0.006707 
							CHANNELS 3 Xrotation Yrotation Zrotation
							End Site
							{
								OFFSET 0.000000 0.179920 0.000962 
							}
						}
					}
				}
				JOINT LeftShoulder
				{
					OFFSET 0.048002 0.079586 -0.029634 
					CHANNELS 3 Zrotation Xrotation Yrotation
					JOINT LeftArm
					{
						OFFSET 0.096243 -0.008695 -0.014012 
						CHANNELS 3 Zrotation Xrotation Yrotation
						JOINT LeftForeArm
						{
							OFFSET 0.216305 0.000000 0.000000 
							CHANNELS 3 Xrotation Zrotation Yrotation
							JOINT LeftHand
							{
								OFFSET 0.217764 0.000000 0.000000 
								CHANNELS 3 Zrotation Yrotation Xrotation
								JOINT LeftHandThumb1
								{
									OFFSET 0.018582 -0.007835 0.020476 
									CHANNELS 3 Zrotation Xrotation Yrotation
									JOINT LeftHandThumb2
									{
										OFFSET 0.026269 -0.007835 0.022186 
										CHANNELS 3 Zrotation Xrotation Yrotation
										JOINT LeftHandThumb3
										{
											OFFSET 0.035170 -0.010504 0.017018 
											CHANNELS 3 Zrotation Xrotation Yrotation
											End Site
											{
												OFFSET 0.020312 -0.007813 0.007813 
											}
										}
									}
								}
								JOINT LeftHandMiddle1
								{
									OFFSET 0.081749 0.004803 0.003358 
									CHANNELS 3 Zrotation Xrotation Yrotation
									JOINT LeftHandMiddle2
									{
										OFFSET 0.045251 0.000000 0.000000 
										CHANNELS 3 Zrotation Xrotation Yrotation
										JOINT LeftHandMiddle3
										{
											OFFSET 0.029009 0.000000 0.000000 
											CHANNELS 3 Zrotation Xrotation Yrotation
											End Site
											{
												OFFSET 0.017969 0.000000 0.000000 
											}
										}
									}
								}
								JOINT LeftHandIndex1
								{
									OFFSET 0.081207 0.004803 0.021137 
									CHANNELS 3 Zrotation Xrotation Yrotation
									JOINT LeftHandIndex2
									{
										OFFSET 0.043354 0.000000 0.000000 
										CHANNELS 3 Zrotation Xrotation Yrotation
										JOINT LeftHandIndex3
										{
											OFFSET 0.026493 0.000000 0.000000 
											CHANNELS 3 Zrotation Xrotation Yrotation
											End Site
											{
												OFFSET 0.019531 0.000000 0.000000 
											}
										}
									}
								}
								JOINT LeftHandRing1
								{
									OFFSET 0.080666 0.002509 -0.014652 
									CHANNELS 3 Zrotation Xrotation Yrotation
									JOINT LeftHandRing2
									{
										OFFSET 0.042541 0.000000 0.000000 
										CHANNELS 3 Zrotation Xrotation Yrotation
										JOINT LeftHandRing3
										{
											OFFSET 0.029009 0.000000 0.000000 
											CHANNELS 3 Zrotation Xrotation Yrotation
											End Site
											{
												OFFSET 0.015625 0.000000 0.000000 
											}
										}
									}
								}
								JOINT LeftHandPinky1
								{
									OFFSET 0.078227 -0.000612 -0.030993 
									CHANNELS 3 Zrotation Xrotation Yrotation
									JOINT LeftHandPinky2
									{
										OFFSET 0.028721 0.000000 0.000000 
										CHANNELS 3 Zrotation Xrotation Yrotation
										JOINT LeftHandPinky3
										{
											OFFSET 0.021963 0.000000 0.000000 
											CHANNELS 3 Zrotation Xrotation Yrotation
											End Site
											{
												OFFSET 0.022656 0.000000 0.000000 
											}
										}
									}
								}
							}
						}
					}
				}
				JOINT RightShoulder
				{
					OFFSET -0.047970 0.079586 -0.029634 
					CHANNELS 3 Zrotation Xrotation Yrotation
					JOINT RightArm
					{
						OFFSET -0.096274 -0.008695 -0.014012 
						CHANNELS 3 Zrotation Xrotation Yrotation
						JOINT RightForeArm
						{
							OFFSET -0.216305 0.000000 0.000000 
							CHANNELS 3 Xrotation Zrotation Yrotation
							JOINT RightHand
							{
								OFFSET -0.217764 0.000000 0.000000 
								CHANNELS 3 Zrotation Yrotation Xrotation
								JOINT RightHandThumb1
								{
									OFFSET -0.019670 -0.007318 0.019638 
									CHANNELS 3 Zrotation Xrotation Yrotation
									JOINT RightHandThumb2
									{
										OFFSET -0.025498 -0.008492 0.023179 
										CHANNELS 3 Zrotation Xrotation Yrotation
										JOINT RightHandThumb3
										{
											OFFSET -0.034504 -0.010705 0.016680 
											CHANNELS 3 Zrotation Xrotation Yrotation
											End Site
											{
												OFFSET -0.020312 -0.007813 0.007813 
											}
										}
									}
								}
								JOINT RightHandIndex1
								{
									OFFSET -0.081770 0.003825 0.021187 
									CHANNELS 3 Zrotation Xrotation Yrotation
									JOINT RightHandIndex2
									{
										OFFSET -0.042006 0.000000 0.000000 
										CHANNELS 3 Zrotation Xrotation Yrotation
										JOINT RightHandIndex3
										{
											OFFSET -0.026449 0.000000 0.000000 
											CHANNELS 3 Zrotation Xrotation Yrotation
											End Site
											{
												OFFSET -0.020312 0.000000 0.000000 
											}
										}
									}
								}
								JOINT RightHandMiddle1
								{
									OFFSET -0.084059 0.003825 0.003342 
									CHANNELS 3 Zrotation Xrotation Yrotation
									JOINT RightHandMiddle2
									{
										OFFSET -0.043881 0.000000 0.000000 
										CHANNELS 3 Zrotation Xrotation Yrotation
										JOINT RightHandMiddle3
										{
											OFFSET -0.029191 0.000000 0.000000 
											CHANNELS 3 Zrotation Xrotation Yrotation
											End Site
											{
												OFFSET -0.017969 0.000000 0.000000 
											}
										}
									}
								}
								JOINT RightHandRing1
								{
									OFFSET -0.081798 0.003030 -0.015127 
									CHANNELS 3 Zrotation Xrotation Yrotation
									JOINT RightHandRing2
									{
										OFFSET -0.042198 0.000000 0.000000 
										CHANNELS 3 Zrotation Xrotation Yrotation
										JOINT RightHandRing3
										{
											OFFSET -0.026497 0.000000 0.000000 
											CHANNELS 3 Zrotation Xrotation Yrotation
											End Site
											{
												OFFSET -0.017188 0.000000 0.000000 
											}
										}
									}
								}
								JOINT RightHandPinky1
								{
									OFFSET -0.077902 -0.000930 -0.030891 
									CHANNELS 3 Zrotation Xrotation Yrotation
									JOINT RightHandPinky2
									{
										OFFSET -0.028538 0.000000 0.000000 
										CHANNELS 3 Zrotation Xrotation Yrotation
										JOINT RightHandPinky3
										{
											OFFSET -0.021734 0.000000 0.000000 
											CHANNELS 3 Zrotation Xrotation Yrotation
											End Site
											{
												OFFSET -0.022656 0.000000 0.000000 
											}
										}
									}
								}
							}
						}
					}
				}
			}
		}
	}
	JOINT LeftUpLeg
	{
		OFFSET 0.075264 -0.025573 0.000000 
		CHANNELS 3 Xrotation Yrotation Zrotation
		JOINT LeftLeg
		{
			OFFSET 0.000000 -0.326016 -0.013516 
			CHANNELS 3 Xrotation Yrotation Zrotation
			JOINT LeftFoot
			{
				OFFSET 0.000098 -0.306172 -0.006623 
				CHANNELS 3 Xrotation Yrotation Zrotation
				JOINT LeftToeBase
				{
					OFFSET -0.001432 -0.095259 0.064705 
					CHANNELS 3 Xrotation Yrotation Zrotation
					End Site
					{
						OFFSET 0.000000 0.000000 0.079438 
					}
				}
			}
		}
	}
	JOINT RightUpLeg
	{
		OFFSET -0.075264 -0.025573 0.000000 
		CHANNELS 3 Xrotation Yrotation Zrotation
		JOINT RightLeg
		{
			OFFSET 0.000000 -0.326016 -0.013516 
			CHANNELS 3 Xrotation Yrotation Zrotation
			JOINT RightFoot
			{
				OFFSET 0.000098 -0.306172 -0.006623 
				CHANNELS 3 Xrotation Yrotation Zrotation
				JOINT RightToeBase
				{
					OFFSET -0.001432 -0.095259 0.064705 
					CHANNELS 3 Xrotation Yrotation Zrotation
					End Site
					{
						OFFSET 0.000025 0.000000 0.079438 
					}
				}
			}
		}
	}
}
MOTION
Frames: 4
Frame Time: 0.033333
0.000127 0.735525 0.000026 1.580600 -0.892700 -4.928100 1.288500 -1.210500 2.561300 0.728700 0.264200 5.944700 0.710800 0.781500 5.852000 1.045300 -0.304700 -2.164000 -0.000000 0.000000 -0.000000 1.585000 0.544200 -8.140500 -4.916300 4.768000 -13.405900 -83.437698 -3.039800 4.401200 -0.000000 -0.000000 -14.506800 -14.044800 -0.184200 -21.888399 6.239100 23.778299 5.843400 -6.591800 -9.477200 17.620701 2.665500 -2.262400 5.146800 -13.171100 -0.729500 4.771100 -33.601101 -0.459000 0.597000 -12.350700 -0.015300 0.239700 -4.902500 0.010200 1.517300 -20.736099 -0.255000 0.708700 -10.199800 -0.017700 -0.228100 -24.224800 -1.395600 6.751100 -40.371201 0.185300 0.277300 -19.427500 0.238300 -0.036400 -33.932999 -2.698000 10.689000 -45.787300 -0.183400 -0.365800 -20.697399 -0.171800 0.776100 5.481700 4.804400 2.879000 67.336800 0.135400 1.378100 -0.000000 -0.000000 17.736799 14.727000 -8.709800 -8.442000 -6.574500 24.604099 -7.453500 7.335700 -9.310700 -15.826100 -1.536100 -2.228700 -4.219600 5.576200 0.003900 -1.764200 20.714600 -0.332600 -1.133800 13.815200 -0.104100 0.951800 13.769400 -0.779400 -5.187800 33.575100 -0.659400 -1.261700 15.979800 -0.075800 -0.401700 24.768900 -1.541500 -7.382100 40.357800 -0.100600 -1.055200 17.751400 0.083000 1.507500 34.370602 -2.950600 -11.494900 45.780499 -0.546900 -0.495000 22.067801 -0.425200 1.799900 -21.946800 10.090100 16.487000 29.050699 9.392200 2.124200 -6.482300 3.765600 -11.667600 -0.473500 -0.000000 0.000000 -0.585800 -4.717800 10.879400 11.644000 -5.107100 3.411200 -10.293700 1.023000 -8.552200 -0.586300 -0.000000 -0.000000 
0.000213 0.735544 0.000235 1.584500 -0.885700 -4.932300 1.282500 -1.202800 2.553900 0.724800 0.265800 5.946600 0.706800 0.783200 5.853900 1.048300 -0.295000 -2.168700 -0.000000 0.000000 -0.000000 1.585200 0.595700 -8.167400 -4.896600 4.767200 -13.364500 -83.461700 -3.066000 4.383600 -0.000000 0.000000 -14.494700 -14.068100 -0.195700 -21.885500 6.238700 23.777800 5.841100 -6.591900 -9.477500 17.618200 2.665300 -2.262800 5.144200 -13.172000 -0.729500 4.771100 -33.602001 -0.459000 0.597000 -12.351600 -0.015300 0.239700 -4.903400 0.010200 1.517300 -20.737000 -0.255000 0.708700 -10.200700 -0.017700 -0.228100 -24.222200 -1.395400 6.751100 -40.368599 0.185300 0.277300 -19.424900 0.238300 -0.036400 -33.930500 -2.697500 10.689100 -45.784698 -0.183400 -0.365800 -20.694799 -0.171800 0.776100 5.501300 4.806800 2.895600 67.332497 0.108100 1.359200 0.000000 -0.000000 17.738701 14.703000 -8.708100 -8.441900 -6.574200 24.603600 -7.451100 7.335800 -9.311000 -15.823500 -1.535800 -2.229000 -4.217100 5.577100 0.003900 -1.764200 20.715500 -0.332600 -1.133900 13.816100 -0.104100 0.951800 13.770300 -0.779400 -5.187800 33.576000 -0.659400 -1.261700 15.980600 -0.075800 -0.401800 24.766300 -1.541300 -7.382000 40.355202 -0.100500 -1.055100 17.748800 0.083000 1.507600 34.368000 -2.950100 -11.494900 45.777901 -0.546900 -0.495000 22.065201 -0.425100 1.800000 -21.954700 10.088400 16.489599 29.081200 9.392300 2.123800 -6.482300 3.755600 -11.668100 -0.471800 0.000000 -0.000000 -0.547700 -4.709100 10.878000 11.586400 -5.091000 3.409200 -10.278500 1.021200 -8.545900 -0.600700 -0.000000 -0.000000 
0.000297 0.735570 0.000448 1.594100 -0.880700 -4.937900 1.275300 -1.198500 2.545800 0.718600 0.266300 5.946800 0.700600 0.784100 5.854100 1.053400 -0.287200 -2.170500 -0.000000 0.000000 -0.000000 1.584100 0.638400 -8.189100 -4.864800 4.765700 -13.333900 -83.499298 -3.084500 4.371600 0.000000 -0.000000 -14.489100 -14.082300 -0.205200 -21.877600 6.238000 23.776600 5.835400 -6.592000 -9.478200 17.612101 2.664700 -2.263800 5.138200 -13.174000 -0.729600 4.771100 -33.604099 -0.459100 0.597000 -12.353700 -0.015300 0.239700 -4.905500 0.010100 1.517300 -20.739100 -0.255000 0.708700 -10.202700 -0.017700 -0.228100 -24.216101 -1.395100 6.751200 -40.362400 0.185200 0.277300 -19.418800 0.238200 -0.036400 -33.924500 -2.696400 10.689400 -45.778599 -0.183400 -0.365800 -20.688700 -0.171800 0.776100 5.507400 4.811100 2.905000 67.345596 0.079000 1.344700 -0.000000 -0.000000 17.738501 14.708600 -8.709100 -8.454600 -6.573400 24.602200 -7.445500 7.336000 -9.311800 -15.817400 -1.535100 -2.229900 -4.211000 5.579100 0.003800 -1.764200 20.717600 -0.332600 -1.133900 13.818200 -0.104100 0.951800 13.772300 -0.779600 -5.187800 33.578098 -0.659500 -1.261700 15.982700 -0.075800 -0.401800 24.760201 -1.541000 -7.382000 40.349098 -0.100500 -1.055000 17.742701 0.083000 1.507700 34.362000 -2.948900 -11.495100 45.771801 -0.546700 -0.494900 22.059099 -0.425000 1.800100 -21.953800 10.084300 16.488701 29.099400 9.392600 2.127500 -6.486100 3.742800 -11.670100 -0.468100 0.000000 -0.000000 -0.496200 -4.696800 10.881200 11.505100 -5.086500 3.404800 -10.252500 1.018700 -8.538500 -0.615600 -0.000000 0.000000 
0.000380 0.735598 0.000659 1.607600 -0.876400 -4.944500 1.267600 -1.198500 2.536700 0.709700 0.265900 5.946300 0.691600 0.784000 5.853700 1.058700 -0.281900 -2.168700 -0.000000 0.000000 -0.000000 1.577600 0.671500 -8.206100 -4.818800 4.763800 -13.308300 -83.547897 -3.094000 4.366500 0.000000 -0.000000 -14.490900 -14.099100 -0.210800 -21.874399 6.236700 23.774401 5.826000 -6.592100 -9.479400 17.601900 2.663600 -2.265300 5.128100 -13.177500 -0.729800 4.771000 -33.607601 -0.459100 0.596900 -12.357200 -0.015300 0.239700 -4.909000 0.010000 1.517300 -20.742599 -0.255100 0.708700 -10.206200 -0.017700 -0.228100 -24.205900 -1.394600 6.751300 -40.352100 0.185200 0.277300 -19.408501 0.238100 -0.036400 -33.914398 -2.694500 10.689800 -45.768299 -0.183400 -0.365700 -20.678499 -0.171700 0.776200 5.500900 4.818000 2.906300 67.367401 0.058100 1.340400 0.000000 0.000100 17.735001 14.734600 -8.714600 -8.475500 -6.572000 24.600000 -7.436200 7.336300 -9.313100 -15.807200 -1.533900 -2.231300 -4.200900 5.582600 0.003700 -1.764300 20.721100 -0.332700 -1.133900 13.821700 -0.104100 0.951700 13.775800 -0.779800 -5.187800 33.581600 -0.659600 -1.261700 15.986200 -0.075800 -0.401800 24.750000 -1.540300 -7.381900 40.338799 -0.100400 -1.054800 17.732401 0.082900 1.507900 34.351898 -2.946800 -11.495400 45.761501 -0.546600 -0.494800 22.048800 -0.424900 1.800200 -21.946600 10.078700 16.484200 29.108700 9.393100 2.133800 -6.499600 3.730900 -11.667600 -0.463900 -0.000000 0.000000 -0.440200 -4.683600 10.887000 11.416300 -5.091600 3.399400 -10.223800 1.015900 -8.529900 -0.624900 -0.000000 -0.000000 
